<svg xmlns="http://www.w3.org/2000/svg" xmlns:xlink="http://www.w3.org/1999/xlink" aria-hidden="true" role="img" class="iconify iconify--logos" width="35.93" height="32" preserveAspectRatio="xMidYMid meet" viewBox="0 0 256 228"><path fill="#00D8FF" d="M210.483 73.824a171.49 171.49 0 0 0-8.24-2.597c.465-1.9.893-3.777 1.273-5.621c6.238-30.281 2.16-54.676-11.769-62.708c-13.355-7.7-35.196.329-57.254 19.526a171.23 171.23 0 0 0-6.375 5.848a155.866 155.866 0 0 0-4.241-3.917C100.759 3.829 77.587-4.822 63.673 3.233C50.33 10.957 46.379 33.89 51.995 62.588a170.974 170.974 0 0 0 1.892 8.48a165.67 165.67 0 0 0-8.31 2.655C18.069 83.498 0 98.307 0 113.668c0 15.865 18.967 31.678 46.811 41.427a145.52 145.52 0 0 0 6.156 2.135a167.467 167.467 0 0 0-2.01 9.138c-5.354 28.2-1.173 50.591 12.134 58.266c13.744 7.926 36.812-.22 59.273-19.855a145.567 145.567 0 0 0 4.582-4.23a168.064 168.064 0 0 0 6.92 6.314c21.758 18.722 43.246 26.282 56.54 18.586c13.731-7.949 18.194-32.003 12.4-61.268a145.016 145.016 0 0 0-1.535-6.842a144.883 144.883 0 0 0 5.463-1.958c27.42-9.637 45.808-25.244 45.808-40.482c0-15.417-18.106-30.854-45.517-40.844Zm-6.365 70.984c-1.4.493-2.836.967-4.3 1.42c-3.24-10.257-7.612-21.163-12.963-32.432c5.106-11 9.31-21.767 12.459-31.957c2.619.758 5.16 1.557 7.61 2.4c23.69 8.166 38.14 20.213 38.14 29.504c0 9.896-15.606 22.743-40.946 31.065Zm-10.514 20.834c2.562 12.94 2.927 24.64 1.23 33.787c-1.524 8.219-4.59 13.698-8.382 15.893c-8.067 4.67-25.32-1.4-43.927-17.412a156.8 156.8 0 0 1-6.437-5.87c7.214-7.889 14.423-17.06 21.459-27.246c12.376-1.1 24.068-2.964 34.667-5.5a134.17 134.17 0 0 1 1.39 6.15ZM87.276 214.515c-7.882 1.78-14.16.065-17.521-4.831c-3.183-4.634-2.284-12.376 2.365-22.673a144.318 144.318 0 0 1 1.869-8.499c10.486 2.45 22.093 4.275 34.475 5.345c7.084 9.967 14.501 19.08 21.98 27.1a134.376 134.376 0 0 1-4.863 4.415c-9.902 8.682-19.94 14.842-28.305 16.133Zm-2.245-11.664c2.592-2.286 5.324-4.866 8.177-7.7c-7.134-7.934-14.2-16.866-21.04-26.567a144.025 144.025 0 0 1-5.254-12.03c-12.483-4.267-23.982-9.812-33.852-16.347C15.678 144.2 7.1 131.3 7.1 113.668c0-17.244 8.32-29.808 24.195-38.267c9.5-6.2 20.33-10.7 32.1-13.8a165.8 165.8 0 0 1 5.417-12.12c6.8 9.5 13.7 18.3 20.6 26.2c-7.1 7.8-14.2 16.5-21.1 26c8.1 1.4 16 3.2 23.5 5.4a134.4 134.4 0 0 1 1.4 6.2c-9.5 6.1-19.1 11.2-28.3 15.1c-8.1 3.4-15.5 6.1-21.8 8.1c-15.2 4.7-25.3 10.2-25.3 15.6c0 5.9 10.9 11.6 26.8 16.2c6.1 1.8 12.7 3.4 19.7 4.8a144.2 144.2 0 0 1 5.2 12c6.8-9.5 13.8-18.4 20.9-26.4c7.1 7.9 14.3 16.7 21.4 26.2a165.2 165.2 0 0 1-1.9 8.6Zm8.1-38.3c-8.4-2.6-16.9-5.7-25.2-9.4c6.7-9.7 13.4-18.6 20-26.5c6.4 7.6 12.6 14.9 18.5 21.7c-4.4 4.7-8.7 9.7-13.3 15.2Zm45.1 30.1a347.8 347.8 0 0 1-7.9 1.1c-8.4-11.2-16.5-21.9-24.2-31.9c7.5-9.8 14.8-19.2 21.8-27.9c7.1 8.8 14.1 18.2 21 28.1a381.2 381.2 0 0 1-9.7 31.6Zm22.1-57.3c-5.1 5.8-10.4 11.5-15.8 17.1c-5.4-5.6-10.7-11.3-15.8-17.1c5.1-5.8 10.4-11.5 15.8-17.1c5.4 5.6 10.7 11.3 15.8 17.1Zm22.1 57.3a347.8 347.8 0 0 1-7.9-1.1c-8.4-11.2-16.5-21.9-24.2-31.9c7.5-9.8 14.8-19.2 21.8-27.9c7.1 8.8 14.1 18.2 21 28.1a381.2 381.2 0 0 1-9.7 31.6Zm8.1 38.3c-4.4-4.7-8.7-9.7-13.3-15.2c6.4-7.6 12.6-14.9 18.5-21.7c6.6 7.9 13.3 16.8 20 26.5c-8.3 3.7-16.8 6.8-25.2 9.4Zm45.1-30.1a165.2 165.2 0 0 1-1.9-8.6c7.1-9.8 14.3-18.6 21.4-26.2c7.1 8.8 14.1 18.2 21 28.1a144.2 144.2 0 0 1 5.2-12c7-1.4 13.6-3 19.7-4.8c15.9-4.6 26.8-10.3 26.8-16.2c0-5.4-10.1-10.9-25.3-15.6c-6.3-2-13.7-4.7-21.8-8.1c-9.2-3.9-18.8-9-28.3-15.1a134.4 134.4 0 0 1 1.4-6.2c7.5-2.2 15.4-4 23.5-5.4c-6.9-9.7-14-18.5-21.1-26c6.9-7.9 13.8-16.7 20.6-26.2a165.8 165.8 0 0 1 5.4 12.1c11.8 3.1 22.6 7.6 32.1 13.8c15.9 8.5 24.2 21 24.2 38.3c0 17.6-8.6 30.5-24.1 39.1c-9.9 6.5-21.4 12.1-33.9 16.4a144.025 144.025 0 0 1-5.254 12.03c-6.8 9.7-13.9 18.6-21 26.5c2.9 2.8 5.6 5.4 8.2 7.7Zm22.1-57.3c-5.1-5.8-10.4-11.5-15.8-17.1c5.4-5.6 10.7-11.3 15.8-17.1c5.1 5.8 10.4 11.5 15.8 17.1Zm22.1 57.3a347.8 347.8 0 0 1-7.9 1.1c-8.4-11.2-16.5-21.9-24.2-31.9c7.5-9.8 14.8-19.2 21.8-27.9c7.1 8.8 14.1 18.2 21 28.1a381.2 381.2 0 0 1-9.7 31.6Zm8.1 38.3c-4.4-4.7-8.7-9.7-13.3-15.2c6.4-7.6 12.6-14.9 18.5-21.7c6.6 7.9 13.3 16.8 20 26.5c-8.3 3.7-16.8 6.8-25.2 9.4Z"></path><circle cx="128" cy="113.668" r="23.256" fill="#00D8FF"></circle></svg>
